<svg width="201" height="201" viewBox="0 0 201 201" fill="none" xmlns="http://www.w3.org/2000/svg">
<path d="M166 49V68.5C166 71.9478 164.63 75.2544 162.192 77.6924C159.754 80.1304 156.448 81.5 153 81.5H120.5C117.052 81.5 113.746 80.1304 111.308 77.6924C108.87 75.2544 107.5 71.9478 107.5 68.5V49C107.5 45.5522 108.87 42.2456 111.308 39.8076C113.746 37.3696 117.052 36 120.5 36H153C156.448 36 159.754 37.3696 162.192 39.8076C164.63 42.2456 166 45.5522 166 49ZM81.5 120.5H49C45.5522 120.5 42.2456 121.87 39.8076 124.308C37.3696 126.746 36 130.052 36 133.5V153C36 156.448 37.3696 159.754 39.8076 162.192C42.2456 164.63 45.5522 166 49 166H81.5C84.9478 166 88.2544 164.63 90.6924 162.192C93.1304 159.754 94.5 156.448 94.5 153V133.5C94.5 130.052 93.1304 126.746 90.6924 124.308C88.2544 121.87 84.9478 120.5 81.5 120.5Z" fill="black"/>
<path d="M94.5 49V94.5C94.5 97.9478 93.1304 101.254 90.6924 103.692C88.2544 106.13 84.9478 107.5 81.5 107.5H49C45.5522 107.5 42.2456 106.13 39.8076 103.692C37.3696 101.254 36 97.9478 36 94.5V49C36 45.5522 37.3696 42.2456 39.8076 39.8076C42.2456 37.3696 45.5522 36 49 36H81.5C84.9478 36 88.2544 37.3696 90.6924 39.8076C93.1304 42.2456 94.5 45.5522 94.5 49ZM153 94.5H120.5C117.052 94.5 113.746 95.8696 111.308 98.3076C108.87 100.746 107.5 104.052 107.5 107.5V153C107.5 156.448 108.87 159.754 111.308 162.192C113.746 164.63 117.052 166 120.5 166H153C156.448 166 159.754 164.63 162.192 162.192C164.63 159.754 166 156.448 166 153V107.5C166 104.052 164.63 100.746 162.192 98.3076C159.754 95.8696 156.448 94.5 153 94.5Z" fill="#36339F"/>
</svg>
