<svg width="201" height="201" viewBox="0 0 201 201" fill="none" xmlns="http://www.w3.org/2000/svg">
<path d="M83.2827 22.6025L50.4353 67.7729C50.0108 68.3537 49.8834 69.2296 50.1123 69.9976C50.3437 70.7587 50.8856 71.2574 51.4853 71.2574H74.6758L84.334 121.877L95.2095 71.2571H117.182C117.782 71.2571 118.324 70.7584 118.555 69.9972C118.784 69.2293 118.657 68.3534 118.232 67.7725L85.3826 22.6022C85.1036 22.2182 84.7268 21.9999 84.3328 21.9999C83.9385 22.0003 83.5619 22.2186 83.2827 22.6025Z" fill="black"/>
<path d="M117.615 179.056L84.7673 133.885C84.3429 133.304 84.2155 132.429 84.4444 131.661C84.6757 130.899 85.2176 130.401 85.8173 130.401H109.008L118.666 79.7812L129.541 130.401H151.514C152.114 130.401 152.656 130.9 152.887 131.661C153.116 132.429 152.989 133.305 152.564 133.886L119.715 179.056C119.436 179.44 119.059 179.658 118.665 179.658C118.27 179.658 117.894 179.44 117.615 179.056Z" fill="black"/>
</svg>
