<svg width="201" height="201" viewBox="0 0 201 201" fill="none" xmlns="http://www.w3.org/2000/svg">
<path opacity="0.5" fill-rule="evenodd" clip-rule="evenodd" d="M113.2 34.042C110.666 33 107.452 33 101.025 33C94.5978 33 91.3842 33 88.8496 34.042C85.4696 35.4315 82.7844 38.0965 81.3844 41.4507C80.7453 42.982 80.4952 44.7627 80.3973 47.3602C80.2535 51.1774 78.281 54.7108 74.9477 56.6207C71.6144 58.5306 67.5449 58.4593 64.142 56.6743C61.8264 55.4596 60.1475 54.7842 58.4917 54.5679C54.8647 54.094 51.1965 55.0694 48.2942 57.2797C46.1175 58.9373 44.5107 61.6993 41.2971 67.2232C38.0836 72.7472 36.4769 75.5091 36.1187 78.2089C35.6412 81.8084 36.6241 85.4489 38.8512 88.3294C39.8677 89.6443 41.2962 90.749 43.5135 92.1317C46.773 94.1646 48.8703 97.6273 48.8701 101.447C48.8699 105.267 46.7726 108.729 43.5135 110.762C41.2959 112.145 39.8671 113.25 38.8505 114.565C36.6234 117.446 35.6406 121.086 36.1181 124.685C36.4762 127.385 38.083 130.147 41.2964 135.671C44.51 141.195 46.1168 143.957 48.2935 145.614C51.1958 147.825 54.864 148.8 58.491 148.326C60.1467 148.11 61.8255 147.434 64.141 146.22C67.5441 144.435 71.6138 144.364 74.9474 146.274C78.2809 148.184 80.2535 151.717 80.3973 155.535C80.4952 158.132 80.7453 159.913 81.3844 161.444C82.7844 164.798 85.4696 167.463 88.8496 168.853C91.3842 169.895 94.5978 169.895 101.025 169.895C107.452 169.895 110.666 169.895 113.2 168.853C116.58 167.463 119.266 164.798 120.665 161.444C121.305 159.913 121.555 158.132 121.653 155.534C121.797 151.717 123.769 148.184 127.102 146.274C130.435 144.363 134.505 144.435 137.909 146.22C140.224 147.434 141.902 148.109 143.558 148.326C147.185 148.8 150.853 147.825 153.755 145.614C155.933 143.957 157.539 141.195 160.753 135.67C163.966 130.147 165.573 127.385 165.932 124.685C166.409 121.086 165.426 117.445 163.199 114.565C162.182 113.25 160.754 112.144 158.536 110.762C155.277 108.729 153.18 105.267 153.18 101.447C153.18 97.6266 155.277 94.1653 158.536 92.1331C160.754 90.7497 162.183 89.645 163.2 88.3294C165.426 85.4494 166.409 81.8089 165.932 78.2093C165.574 75.5096 163.967 72.7476 160.754 67.2237C157.54 61.6998 155.933 58.9378 153.756 57.2801C150.854 55.0699 147.186 54.0945 143.559 54.5684C141.903 54.7847 140.224 55.46 137.909 56.6746C134.506 58.4596 130.436 58.531 127.103 56.6209C123.769 54.7109 121.797 51.1773 121.652 47.3598C121.554 44.7625 121.305 42.9819 120.665 41.4507C119.266 38.0965 116.58 35.4315 113.2 34.042Z" fill="#BEC7CD"/>
<path d="M121.717 101.446C121.717 112.787 112.454 121.981 101.027 121.981C89.5993 121.981 80.3359 112.787 80.3359 101.446C80.3359 90.1053 89.5993 80.9121 101.027 80.9121C112.454 80.9121 121.717 90.1053 121.717 101.446Z" fill="#36339F"/>
</svg>
